<svg xmlns="http://www.w3.org/2000/svg" viewBox="0 0 283.46 211.89"><style>.st0{fill:#b79e4b}.st1{fill:#e8e5de}</style><g id="Logo"><path class="st0" d="M116.74 173.95h-5.48l.87-1v-10.77l-.87-1h5.48l-.87 1v10.77l.87 1zm12.36-8.87c.02-1.73-.6-2.65-1.77-2.65-1.19 0-2.75.47-2.75.47l-.87.99v-2.67c.02 0 2.59-.86 4.83-.86 2.71.03 4.7 1.81 4.7 4.22 0 1.76-1.22 2.99-3.49 4.24 2.78 1.26 3.67 2.88 3.67 4.88 0 3.12-3.01 5.66-6.19 5.66-1.15 0-3.53-.44-3.53-.44v-2.8l.87.97s1.49.18 2.11.18c1.19 0 2.57-1.57 2.57-3.53 0-1.57-1.1-3.75-3.44-3.75v-1.78c2.08-.01 3.29-1.84 3.29-3.13zm16.96 8.34v5.63h3.74v-5.63h3.74v-3.2h-3.74v-10.63l-12.09 13.83h8.35zm0-7.06v3.86h-3.37l3.37-3.86zm12.78 1.14c0 5.61 3.23 7.52 6.55 7.52 1.92 0 6.55-2.55 6.55-7.52 0-5.98-3.46-7.26-6.52-7.26-1.83.01-6.58 2.2-6.58 7.26zm6.54 5.2c-1.82 0-3.34-2.11-3.34-5.09.02-3.79 2-5.06 3.37-5.06 2.07 0 3.28 1.91 3.28 4.97 0 3.73-1.9 5.18-3.31 5.18zM164.57 43.22c0 2.79-.56 7.12-5.64 10.24-3.95 2.42-17.11 10.51-17.11 10.51s-13.15-8.09-17.1-10.51c-5.08-3.11-5.64-7.44-5.65-10.24V10.74h12.1l.68 1.73H120.8v30.75c0 2.7.55 6.14 4.82 8.76 3.3 2.02 13.16 8.08 16.2 9.95 3.04-1.87 12.9-7.93 16.2-9.95 4.27-2.62 4.82-6.06 4.82-8.76V12.47h-11.11l.68-1.73h12.15c.01 0 .01 22.89.01 32.48zM141.82 58.2s.92-.68 1-1.3c.08-.62.03-.7.03-.7s.94.48 1.41.09c0 0-.84-.52-.84-1.6 0 0 .76.36 1.17-.26 0 0-.6.01-.81-.76-.22-.78-.18-1.16-.55-1.62-.37-.46-.92-.46-.92-.46h-.97s-.55 0-.92.46c-.38.46-.33.84-.55 1.62-.22.77-.82.76-.82.76.42.63 1.18.26 1.18.26 0 1.08-.84 1.6-.84 1.6.47.39 1.4-.09 1.4-.09s-.06.08.03.7c.08.62 1 1.3 1 1.3zm-5.68-5.81c.34.01.82.38.8.76-.02.34-.29.56-.66.56-.23 0-1.03-.15-1.06-1.09-.02-.45.08-.79.25-1.05h-.98c-.06.24-.1.49-.1.77-.01 1.55 1.02 2.13 1.88 2.13 1.2 0 1.87-1.06 1.48-1.97-.34-.8-1.19-.85-1.61-.11zm9.74.11c-.39.9.28 1.97 1.48 1.97.86 0 1.9-.58 1.89-2.13 0-.28-.04-.54-.1-.77h-.98c.17.26.27.6.25 1.05-.03.94-.84 1.09-1.06 1.09-.37 0-.64-.22-.66-.56-.02-.38.46-.75.8-.76-.43-.74-1.28-.69-1.62.11zM128.2 39.89l-1.99 4.49-2.89-7.18-.42-.4h2.74l-.4.4 1.58 3.96 2-4.49 1.81 4.5 1.76-3.97-.41-.4h1.62l-.4.4-3.19 7.18-1.81-4.49zm9.6 3.95l.42.42h-2.61l.42-.42v-3.3l-2.34-3.33-.41-.4h3.01l-.4.4 1.48 2.11 1.47-2.11-.42-.4h1.72l-.41.4-1.93 2.77v3.86zm3.75-6.64l-.41-.4h2.61l-.41.4v6.31h2.64l.41-.42v1.16h-5.25l.41-.42V37.2zm7.86 3.57v3.07l.41.42h-2.61l.41-.42v-6.61l-.43-.43 3.19-.01c1.64-.01 2.72.75 2.72 1.91 0 .96-.86 1.47-1.52 1.72l2.3 3.42.41.42h-2.28l-2.35-3.48h-.25zm0-.73h.5c.66 0 1.21-.27 1.21-1.27 0-1.03-.5-1.22-1.15-1.22h-.56v2.49zm5.65 4.21l.42-.42V37.2l-.42-.4h5.5v1.14l-.4-.4h-2.9v2.57h2.34l.42-.41v1.57l-.42-.42h-2.34v2.66h3.06l.42-.42v1.16h-5.68zm-26.37 1.93l-.21-.21h1.34l-.21.21v3.24h1.35l.22-.21v.59h-2.7l.21-.21v-3.41zm4.66 3.63H132l.21-.21v-3.41l-.21-.21h1.34l-.21.21v3.41l.22.21zm2.96.07l-1.46-3.12v2.84l.21.21h-.81l.21-.21v-3.41l-.21-.21h1.25l1.05 2.25.92-2.25h1.23l-.22.21v3.41l.22.21h-1.34l.21-.21v-2.84l-1.26 3.12zm4.83-3.9c.75 0 1.41.25 1.41.96 0 .58-.52.84-.89.88l-.11.01.15.01c.33.02 1.02.07 1.02.95 0 .77-.98 1.02-1.62 1.02h-1.56l.21-.21v-3.41l-.21-.21h1.6zm-.47 1.7h.25c.34 0 .6-.16.6-.67 0-.54-.26-.65-.57-.65h-.29v1.32zm1.02 1.06c0-.56-.36-.67-.71-.67h-.32v1.36h.34c.37 0 .69-.1.69-.69zm1.9-2.56l-.21-.21h1.34l-.21.21v2.25c0 .56.41.99.94.99s.9-.47.9-1.03v-2.21l-.21-.21h.8l-.21.21-.01 2.18c0 .77-.44 1.51-1.43 1.51-1.11 0-1.7-.64-1.7-1.44v-2.25zm5.14 1.83v1.58l.21.21h-1.34l.21-.21v-3.4l-.22-.22h1.64c.85-.01 1.4.39 1.4.98 0 .5-.44.76-.77.88l1.18 1.76.21.21h-1.17l-1.21-1.79h-.14zm0-.37h.25c.35 0 .63-.14.63-.65 0-.53-.26-.63-.59-.63h-.29v1.28zm5 2.24c-1.38 0-2.17-.61-2.17-2 0-1.11.98-1.97 2.27-1.98.82 0 .88.1 1.21.15v.62l-.21-.21c-.21-.03-.55-.11-1-.11-.85 0-1.24.71-1.24 1.52 0 .91.5 1.55 1.18 1.55.13 0 .25-.02.36-.02v-1.13l-.21-.21h1.33l-.21.21v1.38c-.37.11-.57.23-1.31.23zM123 35.14l.18-.18v-2.75l-.18-.17h2.24v.47l-.17-.16h-1.15v1.07h.92l.16-.17v.66l-.16-.17h-.92v1.23l.17.18H123zm3.93 0h-1.09l.17-.18v-2.75l-.17-.17h1.09l-.17.17v2.75l.17.18zm1.6-1.45v1.27l.18.18h-1.09l.17-.18v-2.74l-.18-.18h1.33c.68 0 1.13.31 1.13.8 0 .4-.36.61-.63.71l.96 1.42.17.18h-.95l-.97-1.45h-.12zm0-.3h.21c.28 0 .5-.11.5-.53 0-.43-.21-.51-.48-.51h-.24v1.04zm3.98 1.81l-1.18-2.53v2.29l.17.18h-.65l.17-.18v-2.75l-.17-.17h1.01l.85 1.82.74-1.82h1l-.17.17v2.75l.17.18h-1.09l.18-.18v-2.29l-1.03 2.53zm3.16-1.07l-.42.83.17.18h-.68l.17-.18 1.46-2.98 1.4 2.98.17.18h-1.16l.17-.18-.39-.83h-.89zm.74-.31l-.29-.61-.3.61h.59zm3.39 1.32l.17-.18v-2.75l-.17-.17h2.23v.47l-.17-.16h-1.15v1.07h.92l.16-.17v.66l-.16-.17h-.92v1.23l.17.18h-1.08zm6-3.1c.6 0 1.14.2 1.14.77 0 .47-.42.69-.73.71l-.08.01.12.01c.27.01.83.05.83.77 0 .62-.8.83-1.31.83h-1.26l.18-.18v-2.75l-.18-.17h1.29zm-.38 1.39h.21c.27 0 .49-.12.49-.54 0-.44-.21-.53-.47-.53h-.23v1.07zm.83.84c0-.45-.28-.54-.58-.54h-.25v1.1h.27c.3 0 .56-.07.56-.56zm2.35-.58v1.27l.17.18h-1.09l.18-.18v-2.74l-.18-.18H149c.68 0 1.14.31 1.14.8 0 .4-.36.61-.63.71l.95 1.42.18.18h-.96l-.98-1.45h-.1zm0-.3h.21c.29 0 .51-.11.51-.53 0-.43-.21-.51-.48-.51h-.23v1.04zm2.9.74l-.41.83.18.18h-.69l.17-.18 1.46-2.98 1.4 2.98.17.18h-1.16l.17-.18-.4-.83h-.89zm.74-.31l-.29-.61-.3.61h.59zm2.27 1.14l.18.18h-.65l.17-.18v-2.75l-.17-.17h.94l1.38 1.64v-1.47l-.17-.17h.65l-.17.17v2.99l-2.16-2.57v2.33zm4.49.18h-1.52l.17-.18v-2.75l-.17-.17h1.59c.85 0 1.59.56 1.59 1.5 0 .95-.77 1.6-1.66 1.6zm.84-1.6c0-.7-.42-1.19-1.04-1.19h-.4v2.48h.38c.81 0 1.06-.66 1.06-1.29zm-17.73.86c-.22 0-.4.18-.4.4 0 .22.18.4.4.4.22 0 .4-.18.4-.4 0-.22-.18-.4-.4-.4zm-.32-31.54c.23 0 .49.55.49.64 0 1.57-.02 1.12-.04 2.69 0 .09-.2 1.8-.32 2.79 1.96.01 3.81.21 5.57.54.14-1.36.46-4.3.67-5.48.02-.06.33-.58.56-.53.2.03.35.64.33.71-.32 1.53-.24 1.08-.56 2.63-.01.08-.53 1.74-.84 2.7 1.68.31 3.27.71 4.79 1.18l1.59-3.99c.65.05 1.22-.44 1.29-1.08.04-.43-.16-.81-.43-1.07l.91-2.39s-.71-.31-1.4.45c-.38.4-.12 1.09-.12 1.09s-1.25-.08-1.77.95c-.5 1.04.42 1.7-.18 2.86-.5.98-1.23.92-1.7.81-.68-.18-1.48-1.04-1.22-1.7.49-1.34 1-.96 1.29-1.93.42-1.44-1.15-1.96-1.15-1.96s.3-.25.41-.81c.06-.42-.14-.97-.74-1.13-.61-.19-1.08.03-1.3.5-.29.6.04 1.1.04 1.1s-1.42-.26-1.72 1.16c-.3 1.43.86 1.64.52 2.79-.33 1.25-1.19 1.21-1.67 1.12-.52-.1-1.51-.43-1.51-1.46 0-1.22.95-1.02.95-2.47.02-1.45-1.95-1.61-1.95-1.61.23-.21.37-.5.37-.85 0-.62-.56-1.13-1.17-1.13-.61 0-1.17.51-1.17 1.13 0 .35.14.64.37.85 0 0-1.96.16-1.95 1.61 0 1.44.94 1.25.94 2.47 0 1.02-1 1.36-1.51 1.46-.49.09-1.34.13-1.67-1.12-.34-1.15.82-1.36.52-2.79-.31-1.42-1.72-1.16-1.72-1.16s.33-.5.04-1.1c-.22-.47-.69-.69-1.3-.5-.61.16-.8.71-.74 1.13.12.56.41.81.41.81s-1.56.52-1.15 1.96c.3.96.81.58 1.29 1.93.26.66-.54 1.52-1.22 1.7-.47.11-1.2.17-1.7-.81-.6-1.16.31-1.82-.18-2.86-.53-1.02-1.77-.95-1.77-.95s.26-.69-.11-1.09c-.69-.77-1.4-.45-1.4-.45l.91 2.39c-.27.26-.47.64-.43 1.07.07.64.64 1.13 1.29 1.08l1.59 3.99c1.51-.46 3.11-.87 4.79-1.18-.31-.96-.83-2.63-.84-2.7-.32-1.55-.24-1.1-.56-2.63-.02-.07.13-.68.33-.71.22-.05.54.47.56.53.21 1.18.53 4.12.67 5.48 1.75-.33 3.6-.53 5.57-.54-.12-.99-.32-2.7-.32-2.79-.02-1.57-.04-1.12-.04-2.69.02-.08.28-.64.51-.64zm7.55 15.13c.08.05 1.23.5 1.67.55.44.05 1.13.07 1.48-.01.35-.1 1.24-.58 1.86-1.15.48-.43.86-.55 1.06-.54.19.01.23.03.35.07.12.03.08-.07.05-.14-.04-.06-.34-.64-1.27-.64-.68 0-1.3.4-1.57.67-.34.33-.74.93-1.79 1.05-1.04.11-1.67-.11-1.8-.17-.13-.04-.23.19-.04.31zm-15.02.09c-.05.07-1.27.41-1.71.46-.44.05-1.13.07-1.48-.01-.35-.1-1.24-.58-1.86-1.15-.48-.43-.86-.55-1.06-.54-.18.01-.23.03-.35.07-.12.03-.08-.07-.05-.14.03-.06.34-.64 1.27-.64.68 0 1.3.4 1.57.67.34.33.73.93 1.78 1.05 1.05.11 1.7-.11 1.84-.17.21-.07.18.23.05.4zm3.87 9.93c-.58 0-1.59.45-1.63 1.61h3.53c-.05-.11-.1-.22-.16-.32-.53-.92-1.19-1.29-1.74-1.29zm7.24 0c-.55 0-1.21.37-1.75 1.29-.06.1-.11.21-.16.32h3.53c-.03-1.16-1.04-1.61-1.62-1.61zm-2.78-1.99c-.26-.22-.77-.69-.84-.86-.07.17-.58.65-.84.86-.26.22-.75.72-.71 1.42.07 1.22.47 1.38.72 2.19h1.65c.25-.81.65-.96.73-2.19.04-.71-.45-1.21-.71-1.42zm9.09-9.39c-.42-.79-1.25-.69-1.25-.69-.04.09-.04.49-.31.77-.28.29-1.06.59-1.96.6-.61.01-.9.25-.88.62.01.19.1.47.64.59.54.11.98.05.98.05l.31.53h1.55c.07 0 .06-.07 0-.1s-1.58-.78-1.62-.81c-.35-.27-.22-.6-.08-.76.11-.13.77-.2 1.43-.22.82-.03.91.22 1.04.33.05.05.12.09.17-.03.05-.09.12-.61-.02-.88zm-2.99 1.22c-.04.06-.06.16-.06.16h-.68v-.37s.13-.06.41-.06c.28 0 .45.06.45.06s-.09.13-.12.21zm-13.36-.53c-.89-.01-1.67-.32-1.95-.6-.28-.28-.27-.69-.32-.77 0 0-.83-.11-1.25.69-.14.27-.07.79-.02.9.05.11.11.07.17.03.13-.11.21-.36 1.04-.33.66.02 1.34.07 1.43.22.13.23.18.52-.08.76-.04.04-1.56.79-1.62.81-.06.02-.07.1 0 .1h1.55l.31-.53s.44.06.98-.05c.53-.12.63-.4.64-.59.02-.39-.27-.63-.88-.64zm.21.69h-.68s-.02-.1-.05-.16c-.04-.08-.13-.21-.13-.21s.17-.06.45-.06.41.06.41.06v.37zm24.55 9.25s-.36.79-2.66.85c-1.63.05-2.82-.89-2.82-.89s.07-.16.1-.24c.04-.09.19-.5.19-.5s1.36.74 2.69.73c2.55-.02 1.9-1.48 1.9-1.48 2.3-1.33.62-2.56.62-2.56-1.48 2.09-4.77 1.94-4.92 1.68 0 0 0-.15.01-.24 0-.09-.01-.52-.01-.52.77-.03 1.27-.06 1.79-.16 3.46-.69 2.39-2.39 2.39-2.39 2.37-2.01.81-3.13.81-3.13-1.14 2.56-5.36 3.76-5.36 3.76l-.12-.29c-.04-.12-.2-.51-.2-.51 1.01-.4 1.76-.7 2.42-1.06 4.02-2.19 2.29-3.75 2.29-3.75 2.54-2.9.96-3.62.96-3.62-2.21 3.75-6.9 7.27-6.9 7.27s-.12 0-.21.03c-.67.18-2.56 1.54-2.53 2.87.02 1.26 1.05.87 1.09 1.82.02.21.12.53-.76 1.33-.81.73-1.94.73-2.31.67v-3.14h-3.15c-.03-1.43.52-2.46 1.31-3.5.8-1.05 1.69-1.05 1.75-1.06.09-.01.05-.1.03-.13-.03-.03-.14-.07-.35-.09-.18-.02-.18.08-.7-.1-.56-.2-.72-.57-.72-1.04 0-.47.27-.75.78-.93.52-.18.89-.09 1.53-.23s.85-.58.89-.71c.03-.13-.01-.32-.01-.32-.56-.66-1.06-.66-1.82-.68-.77-.01-1.5.19-1.99.27-.49.07-.66.07-1.12.01-.47-.06-.93-.27-.93-.27s.21.35.14.72c-.07.36-.77.78-.77.78.37.07.44.41.33.69-.1.28-.56.77-.56.77s.2.11.28.16c.08.05.13.29-.04.56-1.16 1.76-1.65 4.36-1.65 4.36s-.5-2.6-1.65-4.36c-.17-.27-.13-.51-.04-.56.08-.05.28-.16.28-.16s-.46-.49-.56-.77c-.11-.28-.04-.62.33-.69 0 0-.7-.42-.77-.78-.07-.37.14-.72.14-.72s-.46.21-.93.27c-.46.06-.64.06-1.13-.01-.49-.07-1.22-.28-1.99-.27-.77.01-1.27.02-1.83.68 0 0-.05.18-.01.32.03.13.25.57.88.71.64.15 1.02.05 1.53.23.52.18.78.46.78.93 0 .47-.15.84-.72 1.04-.51.18-.51.08-.69.1-.21.02-.33.06-.36.09-.03.03-.06.12.03.13.06.01.95 0 1.75 1.06.79 1.04 1.35 2.07 1.31 3.5h-3.14v3.14c-.37.06-1.5.06-2.31-.67-.89-.8-.78-1.12-.77-1.33.04-.95 1.07-.56 1.09-1.82.02-1.33-1.86-2.69-2.54-2.87-.09-.03-.21-.03-.21-.03s-4.69-3.52-6.9-7.27c0 0-1.57.72.96 3.62 0 0-1.72 1.56 2.29 3.75.66.36 1.41.67 2.42 1.06l-.2.51c-.04.12-.11.29-.11.29s-4.22-1.2-5.36-3.76c0 0-1.56 1.12.81 3.13 0 0-1.07 1.71 2.39 2.39.53.1 1.02.14 1.8.16 0 0-.02.43-.02.52 0 .09.01.24.01.24-.14.26-3.44.41-4.91-1.68 0 0-1.68 1.22.62 2.56 0 0-.66 1.46 1.9 1.48 1.33.01 2.69-.73 2.69-.73s.15.42.19.5c.03.08.1.24.1.24s-1.2.94-2.83.89c-2.3-.07-2.66-.85-2.66-.85-.6.45-.98 2.36 1.11 2.36h10.98v-5.28h12.48v5.28h10.97c2.09 0 1.71-1.91 1.11-2.36zm-12.77-11.51s.25-.07.57-.07c.32 0 .46.07.46.07s.17.68-.51.68c-.67 0-.52-.68-.52-.68zm-11.63.68c-.67 0-.51-.68-.51-.68s.14-.07.46-.07c.33 0 .57.07.57.07s.15.68-.52.68zm-19.39 9.97s-2.13.15-4.01 1.03c-1.31.62-2.56 1.85-2.56 1.85l-.93-.08s1.31-1.74 3.4-2.58c2.59-1.03 4.1-1.21 4.1-1.21v-3.07l-1.69-1.46s-1.87.39-3.76.26c-2.46-.16-3.53-.9-3.53-.9l.55-.37s1.39.53 3.27.53c1.33 0 2.59-.4 2.59-.4s-1.27-1.1-2.3-1.84c-1.83-1.3-3.37-2.14-3.37-2.14l-.23-.66s1.46.58 2.79 1.37c1.12.67 2.4 1.55 2.4 1.55s.37-.8-.11-2.44c-.36-1.23-1.56-2.76-1.56-2.76l1.03.11s1.02 1.27 1.61 2.58c.91 2 .36 3.15.36 3.15s.36.34.94.77c.58.42 1.01.84 1.01.84v-9.39s-1.82-1.06-3.89-1.33c-2.52-.33-4.27.28-4.27.28l1.49 2.24s-2.3-.1-4.32.87c-2.1 1.01-2.35 2.18-2.35 2.18l3.42 2.1-3.17 2.1s1.71 2.11 4.17 3.55c1.51.88 3.9 1.5 3.9 1.5s-1.6.37-2.91 1.17c-4.45 2.73-4.33 5.01-4.33 5.01h12.26V26.4zm-7.28 21.68s1.02 2.25 2.69 2.7c1.83.48 4.14-.21 4.14-.21l-.32-.54s-1.46.18-2.66-.26c-1.23-.45-1.34-1.45-1.34-1.45s.94-.21 2.26.14c1.01.27 1.49.51 1.49.51s-.35-.98-2.32-1.27c-1.4-.2-3.94.38-3.94.38zm1.95 4.49s2.84 2.85 4.48 3.2c2 .42 3.96-.99 3.96-.99l-.62-.51s-1.53.39-2.9 0c-1.41-.4-2.1-1.51-2.1-1.51s.97-.29 2.41-.01c1.1.21 1.68.44 1.68.44s-.54-1.24-2.58-1.39c-.71-.04-4.33.77-4.33.77zm4 4.86s4.34 2.44 6.12 2.55c2.16.14 3.15-1.38 3.15-1.38l-.74-.56s-1.12.59-2.64.4c-1.57-.2-2.74-1.27-2.74-1.27s.71-.34 2.26-.27c1.18.06 1.85.2 1.85.2s-1.06-1.25-3.12-1.11c-.72.05-2.8 1.16-4.14 1.44zm4.2 4.5s3.29 2.56 6.36 2.3c2.23-.19 3.04-2.07 3.04-2.07l-.72-.54s-1.11.85-2.7.88c-1.63.03-2.95-1-2.95-1s.37-.26 1.96-.42c1.21-.12 2.54-.27 2.54-.27s-.96-1.15-3.05-.67c-.74.17-4.17 1.73-4.48 1.79zm-2.91-16.94c-.74.89-.47 3.86.55 5.73 1.56 2.86 4.11 4.94 8.39 7.8 3.44 2.3 5.5 4.33 6.98 4.61 1.47.27 2.82-.24 3.04-.36-3.93-2.42-9.86-6.11-12.46-7.7-3.86-2.36-6.05-5.73-6.5-10.08-.04.04 0 0 0 0zm-7.61-1.25c.07.31.3.76.5 1.03.69.91 1.1 1.25 2.3 2.08.84-.07 1.97-.12 2.77.04.1.02.2.04.29.07-1.06-.41-2.51-1-3.23-1.52-1.4-1.01-2.31-2.4-2.45-2.53-.17-.17-.26-.14-.26.01.01.11-.04.31.08.82zm7.65-11.77l-4.42.01c-2.72.03-4.22.42-5.35 1.37-1.2 1.04-1.58 2.87-1.69 3.56l11.46-4.77v-.17zm-5.39 8.09c-.25-.29-.94-1.19-1.15-2.14a3.6 3.6 0 01.17-1.87l-2.67 1.21c-.67.32-1.08 1.23-1 2.25.09 1.08.53 2.44.67 2.83.38-.03 1.58-.19 2.87-1.18.71-.55.99-.93 1.11-1.1zm1.08 4.05c.98.74 2.6 1.25 3.04 1.39.13-.22.49-.7 1.27-1.28v-4.53c-.57.3-1.28.6-2.03.73-1.2.22-1.56.23-1.95.17-.15.22-.57.75-.85 1.02-.49.48-.93.64-1.19.72.2.31.75 1.05 1.71 1.78zm2.84-5.61c.56-.16 1.06-.41 1.47-.64v-4.5l-4.52 1.99c-.08.12-.34.62-.42 1.5-.06.66.27 1.64.62 2.32.28-.03 1.21-.18 2.85-.67zm52.34-7.67h12.26s.13-2.27-4.33-5.01c-1.31-.81-2.91-1.17-2.91-1.17s2.38-.62 3.89-1.5c2.46-1.43 4.16-3.55 4.16-3.55l-3.17-2.1 3.42-2.1s-.25-1.17-2.35-2.18c-2.01-.97-4.31-.87-4.31-.87l1.48-2.24s-1.75-.61-4.27-.28c-2.07.28-3.88 1.33-3.88 1.33v9.39s.42-.42 1.01-.84c.59-.42.94-.77.94-.77s-.55-1.15.36-3.15c.59-1.31 1.61-2.58 1.61-2.58l1.03-.11s-1.21 1.53-1.56 2.76c-.47 1.64-.11 2.44-.11 2.44s1.28-.89 2.4-1.55c1.33-.79 2.79-1.37 2.79-1.37l-.23.66s-1.54.83-3.37 2.14c-1.03.74-2.3 1.84-2.3 1.84s1.27.4 2.59.4c1.88 0 3.27-.53 3.27-.53l.55.37s-1.07.74-3.53.9c-1.89.12-3.76-.26-3.76-.26l-1.69 1.46v3.07s1.51.17 4.11 1.21c2.09.83 3.39 2.58 3.39 2.58l-.93.08s-1.25-1.24-2.56-1.85c-1.88-.89-4.01-1.03-4.01-1.03v4.41zm3.34 16.87c-1.97.29-2.32 1.27-2.32 1.27s.48-.23 1.49-.51c1.32-.36 2.26-.14 2.26-.14s-.11 1-1.34 1.45c-1.2.44-2.66.26-2.66.26l-.32.54s2.31.69 4.14.21c1.68-.44 2.7-2.7 2.7-2.7s-2.55-.58-3.95-.38zm-2.35 4.11c-2.04.14-2.58 1.39-2.58 1.39s.58-.23 1.68-.44c1.45-.28 2.41.01 2.41.01s-.69 1.11-2.1 1.51c-1.37.39-2.9 0-2.9 0l-.62.51s1.96 1.41 3.96.99c1.64-.35 4.49-3.2 4.49-3.2s-3.62-.82-4.34-.77zm-3.8 4.18c-2.06-.14-3.12 1.11-3.12 1.11s.68-.14 1.86-.2c1.54-.08 2.26.27 2.26.27s-1.17 1.07-2.74 1.27c-1.53.19-2.64-.4-2.64-.4l-.74.56s.99 1.52 3.15 1.38c1.77-.12 6.12-2.55 6.12-2.55-1.35-.28-3.42-1.39-4.15-1.44zm-4.54 4.15c-2.09-.48-3.05.67-3.05.67s1.33.15 2.54.27c1.59.16 1.96.42 1.96.42s-1.32 1.03-2.95 1c-1.59-.03-2.7-.88-2.7-.88l-.72.54s.82 1.88 3.04 2.07c3.08.26 6.36-2.3 6.36-2.3-.31-.06-3.74-1.62-4.48-1.79zm7.39-15.15c-.45 4.36-2.64 7.72-6.48 10.07-2.6 1.59-8.53 5.29-12.46 7.7.22.12 1.57.63 3.04.36s3.53-2.3 6.97-4.61c4.28-2.86 6.83-4.93 8.39-7.8 1.01-1.86 1.28-4.83.54-5.72 0 0 .04.04 0 0zm7.68-2.07c0-.15-.09-.18-.26-.01-.14.14-1.04 1.52-2.45 2.53-.72.52-2.17 1.11-3.23 1.52.1-.03.19-.05.29-.07.79-.16 1.93-.12 2.77-.04 1.21-.83 1.61-1.17 2.3-2.08.21-.27.42-.72.5-1.03.13-.51.08-.71.08-.82zm-7.72-10.78l11.46 4.77c-.11-.69-.49-2.52-1.69-3.56-1.13-.95-2.63-1.34-5.35-1.37l-4.42-.01v.17zm6.5 9.01c1.29.99 2.5 1.15 2.87 1.18.14-.39.59-1.75.67-2.83.08-1.02-.33-1.93-1-2.25l-2.67-1.21c.15.41.31 1.07.17 1.87-.21.95-.91 1.85-1.15 2.14.12.18.41.56 1.11 1.1zm-.48 1.17c-.26-.08-.7-.24-1.19-.72-.28-.27-.71-.8-.85-1.02-.38.07-.75.05-1.95-.17-.74-.14-1.45-.44-2.03-.73v4.53c.79.58 1.14 1.07 1.28 1.28.44-.13 2.06-.65 3.03-1.39.96-.72 1.5-1.46 1.71-1.78zm-1.68-3.15c.35-.67.67-1.65.62-2.32-.08-.88-.34-1.38-.42-1.5l-4.53-1.99v4.5c.41.23.91.48 1.48.64 1.62.49 2.56.64 2.85.67zm-32.71 26.42c-3.13-.51-10.38 2.29-10.38 2.29s6.53-1.17 8.55-1.11c3.69.13 6.76 1.6 9.46 1.54 4.44-.13 7.96-3.22 7.96-3.22s-2.9 2.01-7.68 1.97c-2.82-.02-4.82-.95-7.91-1.47zm-.34 3.15c-2.18-.37-6.27 1.65-6.27 1.65s3.57-.59 4.97-.54c2.6.08 6.56 1.12 8.44 1.07 3.11-.08 6.52-2.26 6.52-2.26s-2.96 1.29-6.31 1.26c-1.98-.02-5.19-.83-7.35-1.18zm.61 3.13c-1.52-.25-4.01 1.06-4.01 1.06s2.12-.42 3.11-.38c1.81.05 5.13.78 6.46.75 2.17-.06 4.34-1.58 4.34-1.58s-1.87.91-4.21.88c-1.4-.01-4.17-.47-5.69-.73z"/><path class="st1" d="M68.58 171.14c6.78-1.71 22.09-4.91 29.69-6.06-4.38.34-14.92 1.22-31.49 4.39 0 0 .93.53 1.8 1.67zm1.22 5.19c-.63.9-4.23 3.1-4.23 3.1 10.49-2.67 21.86-5.18 27.03-6.29-7.93.54-22.8 3.19-22.8 3.19zM9.11 113.55c-1.22 1.58-4.41 4.86-4.41 11.39 0 5.78 3.9 12.08 7.31 15.34 2.13 2.03 6.41 5.89 16.1 10.83 5.77 2.89 11.67 5.22 13.77 6.03l.06-.15s-8.18-4.19-13.51-7.18c-5.33-2.99-11.39-7.04-15.05-10.48-3.66-3.45-11.44-13.06-5.4-23.47-.97 5.38 1.65 8.84 2 9.27.34.43 2.89 3.88 8.1 6.86 5.21 2.99 6.95 4.02 13.83 7.49 6.87 3.47 8.96 4.88 9.47 5.15l.08-.15s-3.84-2.97-9.13-5.99c-5.17-2.98-13.61-7.68-13.61-7.68s-5.73-2.83-8.26-6.22c-2.54-3.42-2.74-6.75-1.35-11.04zM43 150.34c9.87 5.63 13.54 8.83 19.63 18.31l-.79.56c-7.01-8.94-13.48-13.18-20.12-16.78-6.4-3.47-6.15-2.81-15.55-7.62-9.78-5.01-10.27-8.47-10.65-9.49 8.42 6.87 22.54 12.21 27.48 15.02zm-27.3 3.61s7.93-3.1 15.13.86l-.03 2.49s-1.5.12-4.92 1.51c0 0 3.5 3.19 3.81 3.92-1.65-.18-12.53-.93-12.53-.93s1.45 6.41 9.31 11.03c0 0-4.79-.62-17.57-5.62 5.76 6.85 15.03 9.13 18.53 9.8 0 0-2.38 1.66-3.01 1.91-.64.25-1.47-.42-3.67.72 5.68 2.71 16.04 2.55 23.24 2.53 0 0-4.77 4.63-10.12 6.29-5.34 1.66-9.24 1.6-11.29.34l.07-1.77s-8.6-1.84-11.88-5.89c3.03-2.94 6.29-4.39 6.29-4.39s-1.32-1.01-3.56-.98c0 0-1.94.71-3.15 1.47C6 174.91 0 167.75 0 167.75s4.57-4.56 9.61-7.33c5.03-2.77 6.5-3.01 8.66-2.73-1.54-2.65-2.57-3.74-2.57-3.74zm12.47 10.79s.41.87 1.54 1c1.24.14 3.1.14 3.63.1 3.27 5.46 5.67 7.35 5.67 7.35s-6.45 1.47-10.48-1.51c-3.4-2.53-6.33-7.35-6.33-7.35l5.97.41zm11.68-5.38c1.71 1.69 7 3.47 8.52 4.05-1.9.36-5.62 1.37-5.62 1.37.59.42 2.58 1.5 5.3 2.73-1.07 3.11-4.67 4.56-4.67 4.56-5.82-2.5-9.68-12.08-9.68-12.08 2.65-.05 6.15-.63 6.15-.63zm-7.59 18.68c1.42-.52.4-.18 3.02-.26 4.2-.13 9.04-1.54 9.04-1.54s6.37.26 11.82.44c-1.31 1.35-7.24 3.1-7.24 3.1-11.67.32-18.94-.65-18.94-.65s1.85-.93 2.3-1.09zm22.98-6.85l7.04.5-3.55 2.96-9.12-.3c1.81-.77 5.63-3.16 5.63-3.16zm8.96-2.02s27.49-5.48 40.6-4.99v.79c-4.52.48-18.17 2.61-36.5 7.03 0 .01-1.68-2.15-4.1-2.83zm40.56-1.96v2.05s-12.74.5-19.89 1.46c0-.01 8.48-2.03 19.89-3.51zm-5.04 4.66v.77s-9 1.24-39.67 8.96c0 0 7-3.73 8.99-5.5 0 0 .37-.43.39-.49 10.48-1.79 18.65-3.2 30.29-3.74zm116.96-2.4c-16.56-3.18-27.1-4.06-31.48-4.39 7.61 1.15 22.92 4.35 29.69 6.06.87-1.14 1.79-1.67 1.79-1.67zm-25.81 3.67c5.17 1.11 16.55 3.62 27.03 6.29 0 0-3.61-2.19-4.23-3.1 0 0-14.88-2.65-22.8-3.19zm82.15-48.58c-2.53 3.39-8.27 6.22-8.27 6.22s-8.44 4.7-13.61 7.68c-5.29 3.03-9.14 5.99-9.14 5.99l.08.15c.51-.27 2.6-1.68 9.47-5.15 6.88-3.47 8.62-4.5 13.83-7.49 5.21-2.99 7.76-6.43 8.1-6.86.34-.43 2.97-3.89 2-9.27 6.04 10.41-1.74 20.02-5.4 23.47-3.66 3.45-9.72 7.49-15.05 10.48-5.33 3-13.51 7.18-13.51 7.18l.06.15c2.1-.81 8-3.14 13.77-6.03 9.68-4.95 13.96-8.8 16.09-10.83 3.41-3.26 7.31-9.56 7.31-15.34 0-6.52-3.19-9.8-4.4-11.39 1.4 4.32 1.2 7.65-1.33 11.04zm-5.08 10.76c-.38 1.02-.86 4.47-10.65 9.49-9.4 4.82-9.15 4.15-15.55 7.62-6.64 3.61-13.11 7.84-20.12 16.78l-.79-.56c6.09-9.48 9.76-12.68 19.63-18.31 4.94-2.81 19.06-8.15 27.48-15.02zm-2.74 22.37c2.16-.28 3.62-.04 8.66 2.73 5.03 2.77 9.61 7.33 9.61 7.33s-6 7.16-10.37 9.48c-1.21-.76-3.15-1.47-3.15-1.47-2.24-.03-3.56.98-3.56.98s3.26 1.44 6.29 4.39c-3.27 4.05-11.88 5.89-11.88 5.89l.08 1.77c-2.05 1.27-5.95 1.32-11.29-.34-5.35-1.66-10.12-6.29-10.12-6.29 7.2.02 17.56.18 23.24-2.53-2.2-1.14-3.04-.46-3.67-.72-.64-.24-3.01-1.91-3.01-1.91 3.5-.67 12.77-2.95 18.53-9.8-12.78 5-17.57 5.62-17.57 5.62 7.86-4.62 9.31-11.03 9.31-11.03s-10.87.75-12.52.93c.3-.73 3.81-3.92 3.81-3.92-3.41-1.4-4.92-1.51-4.92-1.51l-.03-2.49c7.2-3.96 15.13-.86 15.13-.86s-1.03 1.1-2.57 3.75zm-3.93 6.63s-2.93 4.82-6.33 7.35c-4.03 2.98-10.47 1.51-10.47 1.51s2.39-1.89 5.66-7.35c.53.04 2.39.04 3.63-.1 1.13-.12 1.54-1 1.54-1l5.97-.41zm-11.51-4.33s-3.85 9.59-9.68 12.08c0 0-3.61-1.45-4.67-4.56 2.72-1.24 4.71-2.31 5.3-2.73 0 0-3.72-1.01-5.62-1.37 1.52-.58 6.8-2.36 8.52-4.05 0 0 3.5.58 6.15.63zm3.75 19.14s-7.27.96-18.94.65c0 0-5.93-1.76-7.25-3.1 5.45-.17 11.82-.44 11.82-.44s4.84 1.41 9.04 1.54c2.62.08 1.6-.25 3.02.26.45.16 2.31 1.09 2.31 1.09zm-19.66-4.78l-9.12.3-3.55-2.96 7.04-.5c.01 0 3.82 2.39 5.63 3.16zm-18.69-2.34c-18.32-4.42-31.98-6.55-36.5-7.03v-.79c13.11-.49 40.6 4.99 40.6 4.99-2.42.67-4.1 2.83-4.1 2.83zm-16.57-1.3c-7.15-.96-19.89-1.46-19.89-1.46v-2.05c11.41 1.49 19.89 3.51 19.89 3.51zm15.44 4.9c.02.06.39.49.39.49 1.99 1.78 8.99 5.5 8.99 5.5-30.68-7.73-39.68-8.96-39.68-8.96v-.77c11.65.54 19.82 1.95 30.3 3.74z"/><path class="st0" d="M104.32 120.25l.87.68-10.71 9.66-.89-.67 10.73-9.67zm30.7.58l-11.64 9.87.9.67 11.64-9.87-.9-.67zm-60.93-4.53c.49 10.04-5.03 16.98-17.5 22.78l1.08.71c12.36-5.9 17.79-12.95 17.5-22.68l-1.08-.81zm84.61 4.33l-10.26 9.31.89.67 10.26-9.3-.89-.68zm76.82.27l-11.56 9.79.89.67 11.57-9.79-.9-.67zm-63.17 9.03l.88.68 10.74-9.7-.89-.66-10.73 9.68zm87.4-9.72l-10.73 9.73.88.67 10.73-9.7-.88-.7zm-50.74.42l-10.25 9.3.88.66 10.25-9.28-.88-.68zm-31.46-22.67v17l1.09.84V97.96h-1.09zm51.37 15.42V97.96h-1.09v14.57l1.09.85zm23.05-.31V69.32l-1.08-.77v43.66l1.08.86zm-123.62.31V97.96h-1.09v14.57l1.09.85zM95.21 97.96l.01 13.89 1.08.86V97.96h-1.09zm107.4 15.66v-29.6l-1.08-.76v29.45l1.08.91zm-92.53-29.6l-1.1-.76v13.43h1.1V84.02zm-65.2 7.8l1.1-1.13V78.96h-1.1v12.86zm0 10.83v21.81l1.1.72v-21.64c-.37-.3-.73-.6-1.1-.89zm18.07-6.54l.4.36c8.28 7.44 10.2 12.57 10.73 18.94l1.02-.79c-.61-6.22-2.71-11.37-10.62-18.59l11.88-13.62-23.5-24.83-.79.76L74.9 82.46 62.95 96.11zm115.69-10.24v-1.85l-1.09-.76v3.77l1.09-1.16zm-27.25 27.2V84.02l-1.08-.76v28.95l1.08.86zm-55.08-27.2v-1.85l-1.1-.76v3.77l1.1-1.16z"/><path class="st1" d="M206.91 119.22l-9.55 8.64-11.83-8.78V96.32h-10.59v18.72l5.54 4.23-9.53 8.59-11.45-8.69 2.98-2.47V83.26h12.47v8.92l8.43-8.92h15.56v29.45l7.97 6.51zm50.27.02l-9.52 8.63-11.83-8.78V96.32h-10.58v16.24l8.46 6.65-11.14 9.44-12.78-9.47 2.97-2.5v-19.2l13.64-14.22h9.43V68.55h12.46v43.71l8.89 6.98zM71.8 115.43c-.54-6.48-3.7-11.56-11.72-18.76l-.59-.53 11.94-13.68-22.07-23.32-8.93 9.39 14.75 15-12.9 13.32V79H29.76v37.5l-2.97 2.63 27.57 18.42c12.82-5.86 18.21-12.68 17.44-22.12zm-23.2 13.03l-.42.19-5.91-3.95V98.5l1.33 1.03c8.72 6.8 13.21 11.62 14.14 15.12 1.55 5.87-1.28 10.15-9.14 13.81zm108-9.22l-9.53 8.63-11.83-8.93V96.32h-10.59v16.24l8.46 6.65-11.13 9.44-12.77-9.47 2.96-2.46V97.48l13.64-14.22h21.87v29l8.92 6.98zm-55.56-35.98h5.35v13.06H92.61v15.53l9.17 7.38-9.56 8.64-16.02-12.03 3.02-2.53V83.26H92.6v8.91l8.44-8.91zM221.87 211.31c-1.26.16-2.77.12-2.77.12v-2.64s1.67-.05 2.25-.24c.58-.19 1.02-.47 1.02-1.4v-10.83c0-.33.53-.35.85-.29.9.17 1.51.28 2.2.41v10.34c.01 2.73-1.63 4.28-3.55 4.53zm-153.4-4.5c.02 4.34-2.4 4.81-6.25 4.81h-1.3c-.48-.03-1.21-.08-1.55-.19-.52-.17-.9-.42-.9-1.24v-9.96-3.27c0-.42.63-.64.99-.71 1.17-.22 1.6-.29 2.72-.49 3.49-.64 5.81-.42 5.82 3.32.01 2.74-1.5 3.6-2.81 4.05 1.39.17 3.27.53 3.28 3.68zm-6.98-8.13l.01 3.73.91-.09c1.65-.17 2.56-.54 2.55-2.68 0-1.81-.98-1.83-2.67-1.57-.15.02-.17.03-.26.05-.17.06-.54.21-.54.56zm3.94 8.16c-.01-2.13-1.05-2.4-3.01-2.24-.19.01-.22.02-.31.03-.34.04-.59.32-.59.52V209c0 .12.15.32.55.32.23 0 .07.01.3 0 1.84-.05 3.07-.22 3.06-2.48zm36.89-1.34c.51 2.02 1.01 4.06 1.52 6.1h-3.47c-.32-1.59-.64-3.19-.97-4.77-.38-1.91-.96-3.22-1.36-3.77-.31.05-.49.06-.79.13-.16.04-.44.17-.44.42 0 2.67-.02 5.32 0 7.99h-3.14v-19.83c0-.43.6-.62 1.02-.66 1.24-.12 1.94-.2 3.17-.32 3.27-.33 5.63.53 5.66 5.51.02 3.38-1.06 5.02-2.73 5.89.59.5 1.16 1.83 1.53 3.31zm-1.85-8.91c-.01-2.01-.8-2.64-2.75-2.47-.12.01-.17 0-.28.02-.29.04-.66.27-.66.54v5.69c2.08-.38 3.72-.67 3.69-3.78zm17.51 8.61c.03 5.68-2.39 6.4-6.25 6.4h-3.87v-21.08c0-.38.37-.61.97-.66 1.05-.09 1.73-.14 2.78-.21 3.53-.24 5.87.44 5.88 5.34.02 3.6-1.51 4.6-2.81 5.08 1.4.37 3.28 1.02 3.3 5.13zm-7.01-6.43c.3-.01.61-.03.91-.04 1.65-.06 2.57-.47 2.56-3.34-.01-2.44-1-2.61-2.71-2.51-.1.01-.21.02-.31.04-.19.03-.46.26-.46.47.01.2.01 5.38.01 5.38zm3.96 6.32c-.01-2.84-1.06-3.29-3.03-3.22-.11 0-.29.01-.39.02-.22.03-.49.25-.49.45v6.02h.85c1.85-.02 3.08-.22 3.06-3.27zm92 1.29c.48 1.78.96 3.52 1.46 5.23h-3.47c-.3-1.37-.61-2.8-.91-4.22-.36-1.72-.91-2.96-1.3-3.5-.27.01-.47.01-.8.03-.15.01-.49.11-.49.47v7.22h-3.04v-18.82c0-.32.51-.54 1.09-.47.99.13 2.27.28 3.22.41 3.27.46 5.6 1.73 5.58 5.92-.02 2.87-1.11 4.13-2.79 4.73.56.49 1.09 1.7 1.45 3zm-1.73-7.96c.01-1.77-.77-2.48-2.7-2.7-.09-.01-.25-.02-.34-.03-.34-.03-.67.15-.68.42-.01.32 0 5.18 0 5.18 2.07-.1 3.7-.15 3.72-2.87zm-160.77 4.67c.06-.02.11-.04.15-.05 1.48-.56 2.48-.25 3.04 1 .21.46.41 2.16.5 3.1-1.08-.16-4.41-.79-5.8-2.72.88-.93 1.74-1.21 2.11-1.33zm28.42-8.66v17.18h3.2V193.5c-.92.14-1.35.19-2.39.33-.41.06-.8.31-.81.6zm8.31-1.13v18.31h8.62v-3.39h-5.46v-5.03c0-.2.22-.44.57-.47 1.38-.12 2.56-.15 3.95-.23v-3.05s-3.06.23-4.59.35V196c0-.31.33-.42.54-.43 1.63-.15 3.36-.34 5-.49v-3.41c-2.77.32-4.88.59-7.61.95-.47.06-1.02.3-1.02.68zm76.67 11.15c-.01 2.85-.63 3.81-1.93 3.81-1.42-.01-1.88-1.05-1.87-3.85V188.8l-2.45-.06c-.36-.01-.65.25-.65.54v15.24c-.01 4.81 1.13 7.38 4.96 7.38 3.67 0 5.03-2.67 5.04-7.27v-15.58c-1.03-.05-2.09-.08-3.11-.12v15.52zm19.86 2.98c-.07 1.09-.17 1.07-.25.06-.16-1.94-.43-5.06-.62-6.69-.42-3.62-.83-7.26-1.25-10.91-1.18-.09-2.27-.16-3.58-.26-.26-.02-.77.11-.82.43-.43 3.54-.82 6.92-1.25 10.49-.22 1.84-.52 4.92-.69 6.84-.09 1.03-.19 1.09-.25.05-.22-4.21-.8-15.07-.98-18.05-.9-.05-3.2-.17-3.46-.18.82 7.5 1.63 14.97 2.44 22.38h4.16c.42-3.56.85-7.11 1.28-10.65.28-2.22.96-9.02.97-9.02 0 0 .67 6.87.89 9.08.38 3.54.77 7.09 1.14 10.6h4.16c.89-7.12 1.78-14.19 2.66-21.16l-3.45-.3c-.18 2.83-.84 13.13-1.1 17.29zm61.35-4.34c.04.02.11.04.19.06.4.12 1.22.37 2.08 1.27-1.39 1.93-4.72 2.56-5.8 2.72.09-.93.29-2.58.5-3.05.38-.85.96-1.26 1.77-1.26.37-.01.8.08 1.26.26zm-50.14-.48c0-.25.37-.42.65-.4 1.34.06 2.73.13 3.99.2v-3.09c-1.53-.12-3.05-.22-4.58-.31.01-1.4 0-2.6 0-4 0-.33.38-.39.68-.37 1.53.13 3.39.29 4.87.43v-3.36c-2.48-.29-5.22-.57-7.78-.83-.48-.05-.92.24-.92.5v20.23h8.7v-3.38h-5.62c.01-.01.01-5.29.01-5.62zm-42.11-2.5c-.01 11.16-3.17 11.78-5.46 11.78-2.35 0-5.44-.72-5.46-11.77-.02-11.06 3.29-11.82 5.46-11.81 2.17-.01 5.48.81 5.46 11.8zm-3.05-.01c0-6.88-.91-8.52-2.4-8.51-1.53 0-2.4 1.51-2.4 8.51 0 7.1 1.12 8.51 2.4 8.51 1.32.01 2.4-1.3 2.4-8.51zm-12.62 4.93c.49 2.19.99 4.4 1.49 6.58h-3.46c-.32-1.72-.64-3.47-.95-5.19-.37-2.08-.95-3.53-1.34-4.14-.26.04-.58.07-.84.11-.14.02-.38.2-.38.51 0 2.92-.01 5.79 0 8.7h-3.13v-21.97c0-.33.36-.6.67-.61 1.09-.05 2.45-.09 3.53-.12 3.28-.11 5.64.98 5.66 6.31 0 3.62-1.08 5.32-2.77 6.22.59.55 1.14 2.01 1.52 3.6zm-1.81-9.67c-.01-2.18-.8-2.91-2.74-2.86-.06 0-.36 0-.42.01-.27.01-.57.23-.57.54 0 .31.03 6.24.03 6.24 2.06-.33 3.71-.59 3.7-3.93zm83.21-.61v16.86h3.17v-16.9c-.68-.11-1.53-.25-2.24-.36-.46-.08-.93.09-.93.4zM74.98 148.07h1.42v-3.63h.03l.95 3.63h1.42v-6.49h-1.42v3.23h-.02l-.95-3.23h-1.42v6.49zm46.55 0h1.42v-3.63h.03l.95 3.63h1.42v-6.49h-1.42v3.23h-.02l-.96-3.23h-1.42v6.49zm-38.41 0h2.92v-1.31h-1.25v-1.43h1.09v-1.26h-1.09v-1.19h1.16v-1.31h-2.83v6.5zm7.24 0h2.92v-1.31h-1.25v-1.43h1.08v-1.26h-1.08v-1.19h1.16v-1.31h-2.83v6.5zm7.26 0h1.53v-2.95c.08-.02.26-.03.35-.03.35 0 .43.12.43.56v2.41h1.57v-2.27c0-.48-.14-.8-.42-.98-.16-.1-.3-.13-.63-.17v-.02c.37-.04.54-.1.69-.25.2-.19.29-.47.29-.89v-.58c0-.55-.17-.91-.5-1.1-.27-.15-.67-.22-1.4-.22h-1.9v6.49zm1.52-5.46h.38c.33 0 .39.16.39.45v.54c0 .29-.06.45-.39.45h-.38v-1.44zm7.12 5.46h2.79v-1.26h-1.11v-5.24h-1.68v6.5zm6.89 0h1.48l.13-1.14h.95l.13 1.14h1.48l-.89-6.49h-2.47l-.81 6.49zm1.66-2.29l.32-3.06h.16l.34 3.06h-.82zm15.08 2.29h2.56c.95 0 1.48-.45 1.48-1.25v-3.59c0-.73-.2-1.21-.61-1.43-.26-.16-.67-.23-1.26-.23h-2.17v6.5zm1.63-5.4h.39c.32 0 .39.14.39.53v3.24c0 .41-.07.54-.39.54h-.39v-4.31zm52.34 5.4h2.56c.96 0 1.48-.45 1.48-1.25v-3.59c0-.73-.2-1.21-.61-1.43-.26-.16-.67-.23-1.26-.23h-2.17v6.5zm1.63-5.4h.39c.32 0 .39.14.39.53v3.24c0 .41-.07.54-.39.54h-.39v-4.31zm-44.79.68h1.41v-.49c0-.96-.6-1.43-1.83-1.43-1.25 0-1.85.52-1.85 1.61v.36c0 .77.34 1.26 1.26 1.81.65.39.94.68.94 1.08v.41c0 .43-.17.45-.4.45-.19 0-.33-.14-.33-.42v-.92h-1.48v.68c0 .48.07.8.21 1.05.25.43.78.65 1.62.65 1.35 0 1.95-.51 1.95-1.67v-.51c0-.83-.41-1.4-1.4-1.96-.57-.33-.87-.58-.87-.88v-.33c0-.29.18-.38.38-.38.21 0 .36.15.36.46v.43zm53.85 0h1.41v-.49c0-.96-.6-1.43-1.83-1.43-1.25 0-1.85.52-1.85 1.61v.36c0 .77.34 1.26 1.27 1.81.66.39.95.68.95 1.08v.41c0 .43-.17.45-.4.45-.19 0-.33-.14-.33-.42v-.92h-1.48v.68c0 .48.06.8.21 1.05.25.43.78.65 1.62.65 1.36 0 1.95-.51 1.95-1.67v-.51c0-.83-.41-1.4-1.4-1.96-.57-.33-.86-.58-.86-.88v-.33c0-.29.18-.38.38-.38.21 0 .36.15.36.46v.43zm-44.06 2.17h-1.63v1.07c0 .4-.11.53-.33.53-.18 0-.32-.15-.32-.43v-3.73c0-.28.14-.43.32-.43.21 0 .33.12.33.45v1.46h1.63v-1.17c0-1.18-.68-1.83-1.92-1.83-1.29 0-1.98.69-1.98 2.01v2.75c0 .53.08.93.26 1.24.28.5.88.77 1.65.77 1.26 0 1.99-.68 1.99-1.86v-.83zm4.33 2.55h1.63v-2.72h.68v2.72h1.67v-6.49h-1.67v2.35h-.68v-2.35h-1.63v6.49zm24.71-6.49h-1.65v4.96c0 .38-.14.53-.37.53-.23 0-.37-.15-.37-.53v-4.96h-1.65v4.71c0 1.29.66 1.92 2 1.92.63 0 1.21-.16 1.52-.44.33-.29.53-.83.53-1.48v-4.71zm21.34 6.49h1.68v-5.19h.99v-1.31h-3.65v1.31h.99v5.19zm6.69 0h2.92v-1.31h-1.25v-1.43h1.08v-1.26h-1.08v-1.19h1.15v-1.31h-2.83v6.5zm-36.37-2.69c0 .65 0 1.12-.03 1.4-.02.27-.13.51-.29.73-.17.23-.38.4-.66.53-.29.11-.6.17-.98.17-.35 0-.66-.04-.94-.16-.27-.13-.51-.29-.68-.53-.17-.22-.27-.46-.3-.73-.03-.26-.04-.74-.04-1.41v-1.1c0-.65.01-1.12.04-1.39.03-.27.12-.51.29-.75.17-.23.39-.38.66-.52.28-.12.59-.19.96-.19.35 0 .66.06.93.18.3.11.52.28.7.51.16.23.26.48.29.75.03.28.03.74.03 1.41v1.1zm-1.69-2.12c0-.31-.01-.5-.04-.59-.03-.09-.11-.12-.21-.12-.07 0-.16.04-.2.1-.06.07-.08.26-.08.61v3.02c0 .37.02.61.04.71.04.07.1.13.2.13.13 0 .21-.05.24-.16.03-.09.04-.33.04-.72v-2.98z"/></g></svg>